<svg xmlns="http://www.w3.org/2000/svg" xmlns:xlink="http://www.w3.org/1999/xlink" viewBox="0 0 24 24" version="1.1" x="0px" y="0px"><title>icon_photosphere</title><desc>Created with Sketch.</desc><g stroke="none" stroke-width="1" fill="none" fill-rule="evenodd"><g transform="translate(-428.000000, -532.000000)" fill="#000000"><g transform="translate(428.000000, 532.000000)"><g><path d="M11.9999,0.9999 C5.9249,0.9999 0.9999,5.9249 0.9999,11.9999 C0.9999,18.0749 5.9249,22.9999 11.9999,22.9999 C18.0749,22.9999 22.9999,18.0749 22.9999,11.9999 C22.9999,5.9249 18.0749,0.9999 11.9999,0.9999 L11.9999,0.9999 Z M19.4129,15.2829 C18.8329,15.4519 18.2379,15.1579 17.7009,14.6879 C16.6159,13.7389 14.9709,10.6099 14.9709,10.6099 C14.7109,10.1349 14.2759,10.1329 13.9969,10.6079 C13.9969,10.6079 13.1849,12.0079 12.7579,12.6509 C12.1209,13.6089 10.7689,15.3959 10.7689,15.3959 C10.6829,15.5089 10.5279,15.5179 10.4319,15.4239 C10.4319,15.4239 9.7079,14.7259 9.3679,14.3339 C9.1059,14.0329 8.6069,13.3489 8.6069,13.3489 C8.4449,13.1299 8.1739,13.1299 8.0039,13.3459 C8.0039,13.3459 7.3809,14.1469 6.6439,15.0379 C5.9059,15.9289 5.3109,16.3289 4.8069,16.2699 C4.3039,16.2099 3.9479,15.9019 3.6849,15.4509 C3.2439,14.3879 2.9999,13.2229 2.9999,11.9999 C2.9999,7.0299 7.0299,2.9999 11.9999,2.9999 C16.9709,2.9999 20.9999,7.0299 20.9999,11.9999 C20.9999,12.5449 20.9519,13.0789 20.8589,13.5969 C20.6369,14.3899 20.2049,15.0519 19.4129,15.2829 L19.4129,15.2829 Z M18.2319,17.9239 C17.7869,18.4939 16.9639,18.8109 16.4969,18.4459 C16.0309,18.0819 16.6669,17.6479 17.0879,17.1459 C17.6249,16.5079 17.9809,16.3889 18.2739,16.5509 C18.6819,16.7769 18.5539,17.5119 18.2319,17.9239 M15.5169,19.5409 C15.1249,19.8369 14.5279,19.9009 14.2849,19.5789 C14.0429,19.2569 14.5369,19.0839 14.9019,18.8289 C15.3669,18.5039 15.6219,18.4879 15.7869,18.6469 C16.0149,18.8669 15.8009,19.3269 15.5169,19.5409 L15.5169,19.5409 Z M6.4952,6.9366 C6.0332,7.5286 5.8482,8.5856 6.4352,8.9096 C6.8572,9.1436 7.3682,8.9716 8.1402,8.0536 C8.7462,7.3336 9.6602,6.7096 8.9892,6.1856 C8.3182,5.6606 7.1352,6.1176 6.4952,6.9366 L6.4952,6.9366 Z"/></g></g></g></g></svg>